# xmcd
#
# Track frame offsets:
#	150
#	15506
#	35494
#	46050
#	64129
#	78424
#	93478
#	112860
#	130716
#	145136
#	158520
#
# Disc length: 2443 seconds
#
# Revision: 0
# Processed by: cddbd v1.5.2PL0 Copyright (c) Steve Scherf et al.
# Submitted via: dBpowerAMP V4.0
#
DISCID=7d09890b
DTITLE=Various Artist - A New Time, A New Life, A New Religion.
DYEAR=1900
DGENRE=Country
TTITLE0=Good Time - 
TTITLE1=The Accident - 
TTITLE2=China - 
TTITLE3=No No No - 
TTITLE4=Peace Of Mind - 
TTITLE5=New Religion (Ugly Man With A Heart Of Stone) - 
TTITLE6=I'm Longing For You - 
TTITLE7=We Need A Change - Lena Malmborg
TTITLE8=Are You Ready? - 
TTITLE9=Today Is The Day - 
TTITLE10=Where Shall I Lay All My Love - 
EXTD=
EXTT0=
EXTT1=
EXTT2=
EXTT3=
EXTT4=
EXTT5=
EXTT6=
EXTT7=
EXTT8=
EXTT9=
EXTT10=
PLAYORDER=
